<mxfile host="app.diagrams.net" modified="2023-09-11T13:06:07.800Z" agent="Mozilla/5.0 (Windows NT 10.0; Win64; x64) AppleWebKit/537.36 (KHTML, like Gecko) Chrome/116.0.0.0 Safari/537.36" version="21.7.4" etag="0MlJxeyOc4ztZbN9UpSz" type="github">
  <diagram name="PÃ¡gina-1" id="L-9AaNbK1uHMLwQLDtkp">
    <mxGraphModel>
      <root>
        <mxCell id="0" />
        <mxCell id="1" parent="0" />
      </root>
    </mxGraphModel>
  </diagram>
</mxfile>
